<?xml version="1.0" encoding="UTF-8" standalone="no"?>
<!-- Created with Inkscape (http://www.inkscape.org/) -->

<svg
   xmlns:osb="http://www.openswatchbook.org/uri/2009/osb"
   xmlns:dc="http://purl.org/dc/elements/1.1/"
   xmlns:cc="http://creativecommons.org/ns#"
   xmlns:rdf="http://www.w3.org/1999/02/22-rdf-syntax-ns#"
   xmlns:svg="http://www.w3.org/2000/svg"
   xmlns="http://www.w3.org/2000/svg"
   xmlns:sodipodi="http://sodipodi.sourceforge.net/DTD/sodipodi-0.dtd"
   xmlns:inkscape="http://www.inkscape.org/namespaces/inkscape"
   width="780"
   height="400"
   id="svg2"
   version="1.1"
   inkscape:version="0.48.4 r9939"
   sodipodi:docname="invoice.svg">
  <defs
     id="defs4">
    <linearGradient
       osb:paint="solid"
       id="linearGradient5262">
      <stop
         id="stop5264"
         offset="0"
         style="stop-color:#4d4d4d;stop-opacity:1;" />
    </linearGradient>
  </defs>
  <sodipodi:namedview
     id="base"
     pagecolor="#ffffff"
     bordercolor="#666666"
     borderopacity="1.0"
     inkscape:pageopacity="0.0"
     inkscape:pageshadow="2"
     inkscape:zoom="0.7"
     inkscape:cx="320.69163"
     inkscape:cy="-74.134939"
     inkscape:document-units="px"
     inkscape:current-layer="g3079"
     showgrid="false"
     inkscape:window-width="1280"
     inkscape:window-height="1000"
     inkscape:window-x="0"
     inkscape:window-y="24"
     inkscape:window-maximized="1" />
  <metadata
     id="metadata7">
    <rdf:RDF>
      <cc:Work
         rdf:about="">
        <dc:format>image/svg+xml</dc:format>
        <dc:type
           rdf:resource="http://purl.org/dc/dcmitype/StillImage" />
        <dc:title />
      </cc:Work>
    </rdf:RDF>
  </metadata>
  <g
     inkscape:label="Layer 1"
     inkscape:groupmode="layer"
     id="layer1"
     transform="translate(0,-652.36218)">
    <g
       id="g3129"
       transform="matrix(8.8486658,0,0,8.8486658,284.78902,661.17648)">
      <g
         id="g3077">
        <g
           id="g3079">
          <path
             id="path3081"
             d="M 22.342966,0.80722415 H -1.2254074 c -0.838756,0 -1.5191549,0.68039895 -1.5191549,1.51915505 V 25.89341 c 0,0.838756 0.6817409,1.520497 1.5191549,1.520497 H 22.342966 c 0.836072,0 1.519155,-0.681741 1.519155,-1.520497 V 2.3263792 c 0,-0.8387561 -0.683083,-1.51915505 -1.519155,-1.51915505 z M 22.228896,25.780681 H -1.1113366 V 20.383118 H 22.230238 l -0.0013,5.397563 0,0 z m 0,-6.281947 H -1.1113366 V 8.9693269 H 22.230238 l -0.0013,10.5294071 0,0 z m 0,-11.8553127 H -1.1113366 V 2.439108 H 22.230238 l -0.0013,5.2043133 0,0 z"
             style="fill:#545454;fill-opacity:1"
             inkscape:connector-curvature="0" />
          <rect
             id="rect3083"
             height="1.4440024"
             width="13.493907"
             style="fill:#545454;fill-opacity:1"
             y="11.154119"
             x="0.52054727" />
          <rect
             id="rect3085"
             height="1.4440024"
             width="2.9940236"
             style="fill:#9abe00;fill-opacity:1"
             y="10.940335"
             x="15.987068" />
          <rect
             id="rect3087"
             height="1.4466864"
             width="2.9940236"
             style="fill:#9abe00;fill-opacity:1"
             y="14.583892"
             x="15.987068" />
          <rect
             id="rect3089"
             height="1.4453444"
             width="13.493907"
             style="fill:#545454;fill-opacity:1"
             y="14.797675"
             x="0.52054727" />
          <rect
             id="rect3091"
             height="1.9043118"
             width="5.6444921"
             style="fill:#9abe00;fill-opacity:1"
             y="21.445585"
             x="14.218298" />
          <path
             style="fill:#9abe00;fill-opacity:1;fill-rule:nonzero;stroke:#ffffff;stroke-width:0;stroke-linecap:round;stroke-linejoin:miter;stroke-miterlimit:4;stroke-opacity:1;stroke-dasharray:none;stroke-dashoffset:0"
             d="m -1.096047,5.0443315 0,-2.6044363 11.662512,0 11.662513,0 0,2.6044363 0,2.6044363 -11.662513,0 -11.662512,0 0,-2.6044363 z"
             id="path3922"
             inkscape:connector-curvature="0" />
          <g
             style="font-size:3.16431904px;font-style:normal;font-variant:normal;font-weight:500;font-stretch:normal;text-align:start;line-height:125%;letter-spacing:0px;word-spacing:0px;writing-mode:lr-tb;text-anchor:start;fill:#545454;fill-opacity:1;stroke:none;font-family:Rekha;-inkscape-font-specification:Rekha Medium"
             id="text3924"
             transform="matrix(1.3420096,0,0,1.3420096,-2.7445623,0.80722415)">
            <path
               d="m 1.6336685,4.0245619 0,-0.058713 c 0.1277263,10e-8 0.2091003,-0.017511 0.2441223,-0.052533 0.037081,-0.037082 0.055622,-0.1122754 0.055623,-0.2255813 l 0,-1.372029 C 1.9334132,2.1982819 1.9148723,2.1230882 1.8777908,2.0901247 1.8427688,2.0551049 1.7613948,2.037594 1.6336685,2.037592 l 0,-0.058713 0.9177761,0 0,0.058713 c -0.1194868,2e-6 -0.1998308,0.017513 -0.2410321,0.052533 -0.041203,0.032964 -0.061804,0.1081572 -0.061803,0.2255813 l 0,1.372029 c -6e-7,0.115366 0.0206,0.1905597 0.061803,0.2255813 0.041201,0.035022 0.1215453,0.052533 0.2410321,0.052533 l 0,0.058713 -0.9177761,0"
               id="path3933"
               inkscape:connector-curvature="0" />
            <path
               d="m 2.85737,3.7464479 0,-0.7663585 c -2e-7,-0.086523 -0.011331,-0.143176 -0.033992,-0.1699586 -0.014421,-0.01854 -0.039142,-0.02781 -0.074164,-0.027811 -0.043262,1.3e-6 -0.073134,0.00412 -0.089615,0.012361 l 0,-0.052533 c 0.1524475,-0.043261 0.2945945,-0.089613 0.4264414,-0.139057 l 0.021631,0.00618 0,0.2441223 c 0.096824,-0.090643 0.1678978,-0.1503862 0.2132207,-0.179229 0.074163,-0.047381 0.1534769,-0.071072 0.237942,-0.071074 0.092704,1.5e-6 0.1699574,0.028843 0.2317616,0.086524 0.086523,0.080345 0.1297853,0.2060115 0.1297866,0.3769989 l 0,0.7076456 c -1.3e-6,0.074164 0.013389,0.1266965 0.040172,0.1575979 0.02678,0.030902 0.076222,0.046352 0.1483274,0.046352 l 0,0.046352 -0.6427523,0 0,-0.046352 c 0.065922,0 0.1122747,-0.013391 0.139057,-0.040172 0.037081,-0.039142 0.055622,-0.1122754 0.055623,-0.219401 l 0,-0.6458425 c -1e-6,-0.098884 -0.017512,-0.1730475 -0.052533,-0.2224911 -0.035023,-0.051501 -0.096826,-0.077253 -0.1854093,-0.077254 -0.047383,1.2e-6 -0.094765,0.014422 -0.1421472,0.043262 -0.047383,0.028843 -0.1019757,0.073135 -0.1637782,0.1328766 l 0,0.8683337 c -5e-7,0.053563 0.01442,0.093735 0.043262,0.120516 0.030901,0.026781 0.084464,0.040172 0.160688,0.040172 l 0,0.046352 -0.6551129,0 0,-0.046352 c 0.072103,0 0.1215459,-0.015451 0.1483275,-0.046352 0.028841,-0.032961 0.043262,-0.094765 0.043262,-0.1854093"
               id="path3935"
               inkscape:connector-curvature="0" />
            <path
               d="m 5.6292393,2.633992 0,0.046352 C 5.5797953,2.684464 5.5437433,2.701976 5.5210838,2.732877 5.4984208,2.76172 5.4675198,2.824553 5.4283788,2.9213764 L 5.0328393,3.9133163 c -0.022662,0.053563 -0.038113,0.089614 -0.046352,0.1081554 -0.014422,0.030902 -0.026782,0.046352 -0.037082,0.046352 -0.014422,-1e-7 -0.027812,-0.011331 -0.040172,-0.033992 C 4.8989318,4.0111712 4.8845111,3.9740894 4.8659709,3.9225868 4.8082873,3.7742596 4.7330936,3.5898805 4.6403896,3.369449 4.5250234,3.0954561 4.4395292,2.9038667 4.3839067,2.7946801 4.3612453,2.7493591 4.3365241,2.7194876 4.3097429,2.7050656 4.2829615,2.6885861 4.2510299,2.6803457 4.2139481,2.6803443 l 0,-0.046352 0.6056705,0 0,0.046352 c -0.045323,1.4e-6 -0.080345,0.00618 -0.1050653,0.018541 -0.024722,0.012362 -0.037082,0.037083 -0.037082,0.074164 -5e-7,0.018542 0.00309,0.037083 0.00927,0.055623 0.00618,0.018542 0.01236,0.036053 0.018541,0.052533 l 0.3151959,0.7910798 c 0.01442,-0.039142 0.081373,-0.21013 0.2008601,-0.5129658 0.082403,-0.2080694 0.123605,-0.3337356 0.1236062,-0.376999 -1.2e-6,-0.03296 -0.014422,-0.057682 -0.043262,-0.074164 -0.026783,-0.01854 -0.060774,-0.02781 -0.1019751,-0.027811 l 0,-0.046352 0.4295316,0"
               id="path3937"
               inkscape:connector-curvature="0" />
            <path
               d="m 6.457401,2.6030904 c 0.2080695,1.5e-6 0.3759678,0.063865 0.5036953,0.1915897 C 7.0888214,2.9224076 7.1526845,3.0975162 7.152686,3.3200065 7.1526845,3.4971759 7.0970618,3.6578638 6.9858176,3.8020707 6.8560299,3.9709992 6.6829814,4.0554634 6.4666715,4.0554634 6.268901,4.0554634 6.106153,3.98645 5.978427,3.848423 5.8527605,3.7083363 5.7899274,3.5321976 5.7899275,3.3200065 5.7899274,3.1201773 5.8486403,2.9533091 5.9660663,2.8194013 6.0917323,2.6751954 6.2555103,2.6030919 6.457401,2.6030904 m 0.052533,1.3658487 c 0.096824,0 0.1771679,-0.037082 0.2410321,-0.1112456 C 6.8333688,3.7608689 6.8745708,3.6115115 6.874572,3.409621 6.8745708,3.2097917 6.8354289,3.0398334 6.7571461,2.8997453 6.6788612,2.7596596 6.5707058,2.6896161 6.4326798,2.6896148 6.329674,2.6896161 6.2431497,2.7318482 6.1731067,2.8163112 6.1030628,2.8987164 6.0680411,3.0171723 6.0680415,3.171679 c -4e-7,0.1792297 0.026781,0.3399176 0.080344,0.4820642 0.078283,0.2101308 0.1987993,0.3151959 0.3615482,0.3151959"
               id="path3939"
               inkscape:connector-curvature="0" />
            <path
               d="m 7.2948333,4.0245619 0,-0.046352 c 0.1009449,0 0.1668681,-0.015451 0.1977699,-0.046352 0.030901,-0.030901 0.046352,-0.1050651 0.046352,-0.2224912 l 0,-0.716916 c -3e-7,-0.080343 -0.011331,-0.1339056 -0.033992,-0.1606881 -0.014421,-0.01648 -0.039142,-0.02472 -0.074164,-0.024721 -0.020601,1.2e-6 -0.037082,0.00103 -0.049442,0.00309 -0.010301,1.3e-6 -0.035022,0.00309 -0.074164,0.00927 l 0,-0.046352 c 0.096825,-0.0309 0.1761386,-0.057682 0.2379419,-0.080344 0.107125,-0.041201 0.187469,-0.071072 0.2410322,-0.089614 l 0.012361,0.00927 0,1.0970051 c -6e-7,0.1091857 0.01236,0.1812893 0.037082,0.2163109 0.026781,0.035022 0.090644,0.052533 0.1915897,0.052533 l 0,0.046352 -0.7323668,0 M 7.4864229,2.0715837 c -3e-7,-0.03708 0.01133,-0.070042 0.033992,-0.098885 0.030901,-0.03914 0.071073,-0.058711 0.1205161,-0.058713 0.045322,2.1e-6 0.083434,0.015453 0.1143357,0.046352 0.030901,0.030904 0.046352,0.067985 0.046352,0.1112456 -5e-7,0.045324 -0.015451,0.083436 -0.046352,0.1143358 -0.028842,0.028843 -0.066954,0.043264 -0.1143357,0.043262 -0.049443,1.8e-6 -0.087555,-0.017509 -0.1143358,-0.052533 -0.026782,-0.03502 -0.040172,-0.070042 -0.040172,-0.1050653"
               id="path3941"
               inkscape:connector-curvature="0" />
            <path
               d="m 9.3343357,3.5424977 0.043262,0.027811 C 9.2951926,3.743358 9.2035181,3.8679942 9.1025741,3.9442178 9.0036882,4.0183816 8.8893526,4.0554634 8.7595668,4.0554634 c -0.1442077,0 -0.270904,-0.053563 -0.3800891,-0.160688 C 8.247631,3.7649891 8.1817077,3.5888504 8.1817078,3.3663588 8.1817077,3.1273877 8.2548413,2.9368283 8.4011088,2.7946801 8.532955,2.666955 8.6905528,2.6030919 8.8739026,2.6030904 c 0.055622,1.5e-6 0.1133048,0.00927 0.1730487,0.027811 0.059742,0.016482 0.1112445,0.040173 0.1545078,0.071074 0.043261,0.028843 0.076223,0.063865 0.098885,0.1050653 0.02266,0.039143 0.03399,0.075195 0.033992,0.1081554 -1.2e-6,0.039143 -0.012362,0.072105 -0.037082,0.098885 -0.022662,0.024722 -0.057684,0.037083 -0.1050653,0.037082 -0.039143,9e-7 -0.072105,-0.01339 -0.098885,-0.040172 C 9.0685814,2.9842106 9.0510706,2.950219 9.040771,2.9090158 L 9.02223,2.8410324 C 9.007808,2.7854104 8.991328,2.7493594 8.972788,2.732877 8.943946,2.706097 8.892443,2.692706 8.8182802,2.692705 c -0.088585,1.4e-6 -0.168929,0.033993 -0.2410321,0.1019752 -0.1050657,0.098886 -0.1575983,0.2482434 -0.1575979,0.4480725 -4e-7,0.1751094 0.045322,0.3172564 0.1359668,0.4264414 0.090644,0.1091858 0.2029195,0.1637784 0.3368269,0.1637783 0.1009442,10e-8 0.1895286,-0.028841 0.2657534,-0.086524 0.053562,-0.041202 0.1122745,-0.1091851 0.1761388,-0.2039502"
               id="path3943"
               inkscape:connector-curvature="0" />
            <path
               d="m 10.737266,3.5177764 0.04944,0.021631 c -0.03502,0.1071258 -0.09168,0.2049806 -0.169959,0.2935648 -0.131848,0.1483275 -0.293566,0.2224911 -0.485154,0.2224911 -0.1751096,0 -0.3151965,-0.060773 -0.4202614,-0.1823191 C 9.6062661,3.7515983 9.5537336,3.58164 9.5537336,3.3632685 c 0,-0.257512 0.074164,-0.4552817 0.2224912,-0.5933098 0.1194856,-0.1112442 0.2554522,-0.1668669 0.4079002,-0.1668684 0.154507,1.5e-6 0.277083,0.043264 0.367729,0.1297866 0.100944,0.094766 0.159657,0.2400031 0.176139,0.4357119 l -0.9610387,0 c -2e-7,0.247213 0.055623,0.4274719 0.1668684,0.5407771 0.086524,0.088585 0.1946793,0.1328769 0.3244663,0.1328767 0.119485,2e-7 0.22455,-0.039142 0.315196,-0.1174259 0.0515,-0.045322 0.106094,-0.1143353 0.163778,-0.2070404 m -0.9610382,-0.4480725 0.6365722,0 C 10.396318,2.9625796 10.374687,2.8853258 10.347907,2.8379422 10.300523,2.7555394 10.22327,2.7143373 10.116145,2.714336 10.023445,2.7143373 9.949276,2.741119 9.8936537,2.79468 9.8400907,2.846184 9.8009487,2.9378583 9.7762278,3.0697038"
               id="path3945"
               inkscape:connector-curvature="0" />
            <path
               d="m 11.908435,3.58885 -0.268844,0 -0.07107,0.4635233 -0.129787,0 0.07107,-0.4635233 -0.271934,0 -0.07416,0.4635233 -0.132876,0 0.07725,-0.4635233 -0.148328,0 0,-0.1606881 0.176139,0 0.0618,-0.3955399 -0.237942,0 0,-0.160688 0.262663,0 0.08034,-0.4666135 0.126697,0 -0.07416,0.4666135 0.271934,0 0.07725,-0.4666135 0.129786,0 -0.07416,0.4666135 0.148328,0 0,0.160688 -0.176139,0 -0.06489,0.3955399 0.241032,0 0,0.1606881 M 11.6056,3.032622 l -0.275024,0 -0.06489,0.3955399 0.271933,0 0.06798,-0.3955399"
               id="path3947"
               inkscape:connector-curvature="0" />
            <path
               d="m 14.451633,2.0159609 c -0.131847,2e-6 -0.231762,0.084466 -0.299745,0.2533928 -0.06798,0.16893 -0.101976,0.4130521 -0.101975,0.7323668 -10e-7,0.243093 0.01751,0.4388026 0.05253,0.5871295 0.06386,0.2657535 0.180259,0.3986301 0.349188,0.39863 0.131846,10e-8 0.231761,-0.081374 0.299745,-0.2441223 0.06798,-0.1648078 0.101974,-0.41202 0.101975,-0.7416372 -10e-7,-0.2307304 -0.01751,-0.4212898 -0.05253,-0.5716788 -0.06386,-0.276052 -0.18026,-0.4140788 -0.349188,-0.4140808 m 0,-0.080344 c 0.251332,2.1e-6 0.438801,0.1318486 0.562408,0.3955399 0.09064,0.1936512 0.135966,0.4171722 0.135967,0.6705637 -10e-7,0.2575137 -0.04532,0.4820647 -0.135967,0.6736538 C 14.890434,3.9370076 14.702965,4.067824 14.451633,4.0678241 14.2003,4.067824 14.012831,3.9370076 13.889225,3.6753743 13.79858,3.4837852 13.753258,3.2592342 13.753258,3.0017205 c 0,-0.2513314 0.04532,-0.4738223 0.135967,-0.6674736 0.123606,-0.2657514 0.311075,-0.3986279 0.562408,-0.39863"
               id="path3949"
               inkscape:connector-curvature="0" />
            <path
               d="m 15.99671,2.0159609 c -0.131847,2e-6 -0.231762,0.084466 -0.299745,0.2533928 -0.06798,0.16893 -0.101975,0.4130521 -0.101975,0.7323668 0,0.243093 0.01751,0.4388026 0.05253,0.5871295 0.06386,0.2657535 0.180258,0.3986301 0.349187,0.39863 0.131846,10e-8 0.231761,-0.081374 0.299745,-0.2441223 0.06798,-0.1648078 0.101974,-0.41202 0.101976,-0.7416372 -2e-6,-0.2307304 -0.01751,-0.4212898 -0.05253,-0.5716788 -0.06386,-0.276052 -0.18026,-0.4140788 -0.349188,-0.4140808 m 0,-0.080344 c 0.251332,2.1e-6 0.438801,0.1318486 0.562409,0.3955399 0.09064,0.1936512 0.135965,0.4171722 0.135966,0.6705637 -10e-7,0.2575137 -0.04532,0.4820647 -0.135966,0.6736538 -0.123608,0.2616333 -0.311077,0.3924497 -0.562409,0.3924498 -0.251333,-1e-7 -0.438802,-0.1308165 -0.562408,-0.3924498 -0.09065,-0.1915891 -0.135967,-0.4161401 -0.135967,-0.6736538 0,-0.2513314 0.04532,-0.4738223 0.135967,-0.6674736 0.123606,-0.2657514 0.311075,-0.3986279 0.562408,-0.39863"
               id="path3951"
               inkscape:connector-curvature="0" />
            <path
               d="m 17.133888,4.0245619 0,-0.046352 c 0.105065,0 0.176138,-0.011331 0.213221,-0.033992 0.05356,-0.032962 0.08034,-0.1019749 0.08034,-0.2070404 l 0,-1.3998403 c -1e-6,-0.045321 -0.0041,-0.077252 -0.01236,-0.095795 -0.01442,-0.03296 -0.04532,-0.049441 -0.0927,-0.049443 -0.02266,1.8e-6 -0.04017,0.00206 -0.05253,0.00618 -0.04738,0.018543 -0.09991,0.039144 -0.157598,0.061803 l 0,-0.043262 0.556228,-0.2812041 0.02472,0.00618 0,1.8540932 c -1e-6,0.072104 0.01957,0.1205162 0.05871,0.1452373 0.03914,0.024721 0.117425,0.037082 0.234852,0.037082 l 0,0.046352 -0.852883,0"
               id="path3953"
               inkscape:connector-curvature="0" />
            <text
               xml:space="preserve"
               style="font-size:40px;font-style:normal;font-variant:normal;font-weight:500;font-stretch:normal;text-align:start;line-height:125%;letter-spacing:0px;word-spacing:0px;writing-mode:lr-tb;text-anchor:start;fill:#000000;fill-opacity:1;stroke:none;font-family:Rekha;-inkscape-font-specification:Rekha Medium"
               x="357.14285"
               y="219.28571"
               id="text3955"
               sodipodi:linespacing="125%"
               transform="matrix(0.11301139,0,0,0.11301139,-32.184402,-0.99611627)"><tspan
                 sodipodi:role="line"
                 id="tspan3957"
                 x="357.14285"
                 y="219.28571" /></text>
          </g>
          <g
             style="font-size:6.58145905px;font-style:normal;font-variant:normal;font-weight:500;font-stretch:normal;text-align:start;line-height:125%;letter-spacing:0px;word-spacing:0px;writing-mode:lr-tb;text-anchor:start;fill:#545454;fill-opacity:1;stroke:none;font-family:Rekha;-inkscape-font-specification:Rekha Medium"
             id="text3959">
            <path
               d="m -30.148178,29.366811 0,-0.122117 1.696783,0 c 0.48418,4e-6 0.87624,0.08999 1.176179,0.269942 0.338496,0.20139 0.507745,0.497041 0.507749,0.886955 -4e-6,0.218528 -0.05142,0.413486 -0.154253,0.584876 -0.05571,0.08998 -0.134975,0.184248 -0.237807,0.282797 -0.141401,0.132831 -0.31922,0.229239 -0.533458,0.289224 -0.209958,0.05999 -0.486327,0.08998 -0.829109,0.08998 l -0.430623,-0.01928 0,1.169752 c -1e-6,0.235664 0.03856,0.39206 0.11569,0.469186 0.08141,0.07284 0.244232,0.109262 0.488467,0.109262 l 0,0.122117 -1.799618,0 0,-0.122117 c 0.248519,0 0.404914,-0.04928 0.469187,-0.147826 0.04713,-0.07284 0.0707,-0.239948 0.0707,-0.501322 l 0,-2.78298 c -1e-6,-0.231376 -0.02999,-0.379201 -0.08998,-0.443477 -0.05999,-0.06855 -0.209956,-0.113543 -0.449905,-0.134971 m 1.195461,0.334214 0,1.671074 0.385632,0.01928 c 0.192815,3e-6 0.342782,-0.01499 0.449905,-0.04499 0.432762,-0.119972 0.649145,-0.43062 0.649147,-0.931945 -2e-6,-0.304218 -0.102838,-0.535597 -0.308505,-0.694138 -0.205673,-0.158534 -0.509894,-0.237803 -0.912664,-0.237807 -0.111406,4e-6 -0.184248,0.01072 -0.218525,0.03214 -0.02999,0.02143 -0.04499,0.08356 -0.04499,0.186389"
               style=""
               id="path3148" />
            <path
               d="m -26.189019,32.959619 0,-1.606802 c 0,-0.167105 -0.02357,-0.27851 -0.0707,-0.334214 -0.02999,-0.03428 -0.08141,-0.05142 -0.154253,-0.05142 -0.04285,2e-6 -0.07713,0.0021 -0.102835,0.0064 -0.02571,3e-6 -0.06427,0.0064 -0.11569,0.01928 l 0,-0.102836 c 0.338499,-0.111402 0.655575,-0.227091 0.951227,-0.347069 l 0.03214,0.01286 0,0.572021 c 0.154252,-0.222807 0.289223,-0.374918 0.404914,-0.456332 0.119973,-0.08569 0.244232,-0.128541 0.372778,-0.128544 0.231377,3e-6 0.347067,0.115693 0.347069,0.347069 -2e-6,0.08141 -0.02357,0.149971 -0.0707,0.205671 -0.04285,0.05142 -0.100695,0.07713 -0.173535,0.07713 -0.08141,3e-6 -0.164967,-0.03642 -0.250661,-0.109262 -0.08141,-0.07712 -0.145685,-0.115687 -0.192816,-0.11569 -0.07713,3e-6 -0.169251,0.06213 -0.27637,0.186389 -0.107121,0.124262 -0.160681,0.237809 -0.16068,0.340642 l 0,1.446122 c -1e-6,0.201386 0.04927,0.336357 0.147826,0.404914 0.07713,0.05142 0.209954,0.07713 0.398486,0.07713 l 0,0.09641 -1.542529,0 0,-0.09641 c 0.192816,-0.03428 0.31279,-0.0707 0.359923,-0.109263 0.06427,-0.05142 0.09641,-0.162822 0.09641,-0.334214"
               style=""
               id="path3150" />
            <path
               d="m -22.956134,30.542989 c 0.432763,3e-6 0.781974,0.132832 1.047635,0.398487 0.265655,0.26566 0.398483,0.629868 0.398486,1.092625 -3e-6,0.368494 -0.115692,0.702709 -0.347069,1.002644 -0.269945,0.351354 -0.629868,0.527031 -1.07977,0.527031 -0.411343,0 -0.749842,-0.143541 -1.015499,-0.430623 -0.261373,-0.291366 -0.39206,-0.657716 -0.392059,-1.099052 -1e-6,-0.415624 0.122116,-0.762693 0.36635,-1.041207 0.261373,-0.299934 0.602014,-0.449902 1.021926,-0.449905 m 0.109263,2.840825 c 0.201384,0 0.368491,-0.07713 0.501322,-0.231379 0.171389,-0.201385 0.257085,-0.512033 0.257088,-0.931945 -3e-6,-0.415624 -0.08141,-0.76912 -0.244234,-1.060489 -0.162824,-0.291364 -0.387776,-0.437047 -0.674857,-0.43705 -0.214241,3e-6 -0.394203,0.08784 -0.539885,0.263516 -0.145684,0.171394 -0.218526,0.41777 -0.218525,0.739128 -1e-6,0.37278 0.0557,0.706994 0.167107,1.002644 0.162822,0.437051 0.413483,0.655575 0.751984,0.655575"
               style=""
               id="path3152" />
            <path
               d="m -19.331189,30.607261 0,0.205671 -0.784119,0 0,2.018143 c -2e-6,0.22281 0.02571,0.366351 0.07713,0.430622 0.07712,0.09427 0.25066,0.141399 0.520604,0.141399 l 0,0.09641 -1.671074,0 0,-0.09641 c 0.218525,0 0.362066,-0.03428 0.430623,-0.102835 0.06856,-0.06856 0.102835,-0.224952 0.102835,-0.469186 l 0,-2.018143 -0.527031,0 0,-0.205671 0.527031,0 c 0,-0.372774 0.04713,-0.666283 0.141399,-0.880527 0.179961,-0.411337 0.51846,-0.617007 1.015498,-0.617012 0.184245,5e-6 0.336355,0.03857 0.456332,0.11569 0.124257,0.07285 0.186387,0.164969 0.186389,0.27637 -2e-6,0.0857 -0.02785,0.152114 -0.08355,0.199243 -0.0557,0.04714 -0.119976,0.0707 -0.192816,0.0707 -0.06856,3e-6 -0.186391,-0.109259 -0.353496,-0.327788 -0.07713,-0.102831 -0.160682,-0.154249 -0.250661,-0.154253 -0.154255,4e-6 -0.261375,0.06428 -0.32136,0.192816 -0.04285,0.09427 -0.06427,0.220671 -0.06427,0.379205 l 0,0.745556 0.790547,0"
               style=""
               id="path3154" />
            <path
               d="m -16.548209,32.445442 0.102835,0.04499 c -0.07284,0.22281 -0.190676,0.426338 -0.353496,0.610584 -0.27423,0.308506 -0.610587,0.462759 -1.009072,0.462759 -0.364209,0 -0.655575,-0.126402 -0.8741,-0.379205 -0.218525,-0.252803 -0.327787,-0.606299 -0.327787,-1.060489 0,-0.535599 0.154252,-0.946939 0.462759,-1.234024 0.248517,-0.231376 0.531314,-0.347066 0.848391,-0.347069 0.321358,3e-6 0.576304,0.08998 0.764837,0.269943 0.209953,0.197103 0.33207,0.499182 0.366351,0.906236 l -1.998861,0 c -1e-6,0.514178 0.115689,0.889098 0.347069,1.124761 0.179961,0.184247 0.404913,0.27637 0.674857,0.27637 0.248517,0 0.467041,-0.08141 0.655575,-0.244234 0.107118,-0.09427 0.220665,-0.237806 0.340642,-0.430623 m -1.998861,-0.931945 1.324004,0 c -0.03428,-0.222807 -0.07927,-0.383487 -0.134971,-0.48204 -0.09855,-0.17139 -0.259232,-0.257086 -0.482041,-0.257088 -0.192817,2e-6 -0.34707,0.0557 -0.462759,0.167107 -0.111405,0.107123 -0.192816,0.297796 -0.244233,0.572021"
               style=""
               id="path3156" />
            <path
               d="m -14.29226,31.481361 -0.09641,0 c -0.06427,-0.304218 -0.164967,-0.518458 -0.302079,-0.64272 -0.107121,-0.09855 -0.244235,-0.147823 -0.411341,-0.147826 -0.158539,3e-6 -0.280655,0.04499 -0.36635,0.134971 -0.08141,0.0857 -0.122118,0.179965 -0.122117,0.282797 -10e-7,0.107123 0.02356,0.197104 0.0707,0.269943 0.05142,0.07284 0.119973,0.134973 0.20567,0.186389 l 0.694139,0.411341 c 0.184244,0.111407 0.312788,0.212099 0.385632,0.302079 0.102833,0.12426 0.154251,0.276371 0.154253,0.456332 -2e-6,0.261373 -0.102837,0.469186 -0.308506,0.623439 -0.179963,0.137113 -0.387776,0.20567 -0.623439,0.20567 -0.102836,0 -0.23995,-0.01928 -0.411341,-0.05785 -0.171393,-0.03856 -0.282798,-0.05784 -0.334215,-0.05784 -0.05999,0 -0.10712,0.02571 -0.141398,0.07713 l -0.08355,0 0,-1.002644 0.102835,0 c 0.05999,0.269943 0.128544,0.462759 0.205671,0.578448 0.141398,0.214241 0.34921,0.321361 0.623439,0.321361 0.132827,0 0.246375,-0.03214 0.340642,-0.09641 0.119973,-0.08141 0.17996,-0.205671 0.179962,-0.372778 -2e-6,-0.192816 -0.111407,-0.351353 -0.334215,-0.475614 l -0.372778,-0.212097 c -0.312792,-0.175676 -0.51632,-0.332071 -0.610585,-0.469187 -0.09427,-0.141396 -0.141398,-0.297791 -0.141398,-0.469186 0,-0.205668 0.0707,-0.381345 0.212098,-0.52703 0.167106,-0.17139 0.396343,-0.257086 0.687711,-0.257089 0.09426,3e-6 0.190672,0.015 0.289224,0.04499 0.09855,0.02571 0.199242,0.05356 0.302079,0.08355 0.03856,3e-6 0.07498,-0.02356 0.109262,-0.0707 l 0.0707,0 0.02571,0.880527"
               style=""
               id="path3158" />
            <path
               d="m -11.785651,31.481361 -0.09641,0 c -0.06427,-0.304218 -0.164967,-0.518458 -0.302079,-0.64272 -0.107121,-0.09855 -0.244235,-0.147823 -0.411341,-0.147826 -0.158539,3e-6 -0.280655,0.04499 -0.366351,0.134971 -0.08141,0.0857 -0.122117,0.179965 -0.122116,0.282797 -1e-6,0.107123 0.02356,0.197104 0.0707,0.269943 0.05142,0.07284 0.119973,0.134973 0.20567,0.186389 l 0.694139,0.411341 c 0.184244,0.111407 0.312788,0.212099 0.385632,0.302079 0.102833,0.12426 0.154251,0.276371 0.154253,0.456332 -2e-6,0.261373 -0.102837,0.469186 -0.308506,0.623439 -0.179963,0.137113 -0.387776,0.20567 -0.623439,0.20567 -0.102836,0 -0.23995,-0.01928 -0.411341,-0.05785 -0.171393,-0.03856 -0.282798,-0.05784 -0.334215,-0.05784 -0.05999,0 -0.10712,0.02571 -0.141398,0.07713 l -0.08355,0 0,-1.002644 0.102835,0 c 0.05999,0.269943 0.128544,0.462759 0.205671,0.578448 0.141398,0.214241 0.34921,0.321361 0.623439,0.321361 0.132827,0 0.246375,-0.03214 0.340642,-0.09641 0.119973,-0.08141 0.17996,-0.205671 0.179962,-0.372778 -2e-6,-0.192816 -0.111407,-0.351353 -0.334215,-0.475614 l -0.372778,-0.212097 c -0.312792,-0.175676 -0.51632,-0.332071 -0.610585,-0.469187 -0.09427,-0.141396 -0.141399,-0.297791 -0.141398,-0.469186 -10e-7,-0.205668 0.0707,-0.381345 0.212098,-0.52703 0.167106,-0.17139 0.396343,-0.257086 0.687711,-0.257089 0.09426,3e-6 0.190672,0.015 0.289224,0.04499 0.09855,0.02571 0.199242,0.05356 0.302079,0.08355 0.03856,3e-6 0.07498,-0.02356 0.109262,-0.0707 l 0.0707,0 0.02571,0.880527"
               style=""
               id="path3160" />
            <path
               d="m -11.200775,33.499504 0,-0.09641 c 0.209956,0 0.347069,-0.03214 0.411342,-0.09641 0.06427,-0.06427 0.09641,-0.218525 0.09641,-0.462759 l 0,-1.491112 c -10e-7,-0.167105 -0.02357,-0.27851 -0.0707,-0.334214 -0.02999,-0.03428 -0.08141,-0.05142 -0.154252,-0.05142 -0.04285,2e-6 -0.07713,0.0021 -0.102836,0.0064 -0.02142,3e-6 -0.07284,0.0064 -0.154253,0.01928 l 0,-0.09641 c 0.201386,-0.06427 0.366351,-0.119972 0.494895,-0.167108 0.222809,-0.08569 0.389916,-0.147823 0.501322,-0.186389 l 0.02571,0.01928 0,2.281658 c -10e-7,0.227095 0.02571,0.377063 0.07713,0.449904 0.0557,0.07284 0.1885295,0.109263 0.3984863,0.109263 l 0,0.09641 -1.5232483,0 m 0.398487,-4.061994 c 0,-0.07712 0.02357,-0.145679 0.0707,-0.205671 0.06427,-0.08141 0.147826,-0.122112 0.250662,-0.122117 0.09426,5e-6 0.173533,0.03214 0.237806,0.09641 0.06427,0.06428 0.09641,0.141403 0.09641,0.23138 -10e-7,0.09427 -0.03214,0.173538 -0.09641,0.237806 -0.05999,0.05999 -0.139257,0.08999 -0.237806,0.08998 -0.102836,4e-6 -0.182105,-0.03642 -0.237807,-0.109262 -0.0557,-0.07284 -0.08355,-0.14568 -0.08355,-0.218525"
               style=""
               id="path3162" />
            <path
               d="m -7.9421802,30.542989 c 0.4327632,3e-6 0.7819744,0.132832 1.0476346,0.398487 0.2656549,0.26566 0.3984837,0.629868 0.3984868,1.092625 -3.1e-6,0.368494 -0.1156927,0.702709 -0.3470692,1.002644 -0.269945,0.351354 -0.6298682,0.527031 -1.0797706,0.527031 -0.4113424,0 -0.7498415,-0.143541 -1.0154986,-0.430623 -0.2613733,-0.291366 -0.3920597,-0.657716 -0.3920595,-1.099052 -2e-7,-0.415624 0.1221166,-0.762693 0.3663507,-1.041207 0.2613723,-0.299934 0.6020138,-0.449902 1.0219258,-0.449905 m 0.1092625,2.840825 c 0.2013839,0 0.3684911,-0.07713 0.5013221,-0.231379 0.1713898,-0.201385 0.2570858,-0.512033 0.2570882,-0.931945 -2.4e-6,-0.415624 -0.081414,-0.76912 -0.2442338,-1.060489 -0.1628246,-0.291364 -0.3877766,-0.437047 -0.6748567,-0.43705 -0.2142415,3e-6 -0.3942031,0.08784 -0.5398853,0.263516 -0.1456841,0.171394 -0.2185257,0.41777 -0.218525,0.739128 -7e-7,0.37278 0.055702,0.706994 0.1671074,1.002644 0.1628214,0.437051 0.4134822,0.655575 0.7519831,0.655575"
               style=""
               id="path3164" />
            <path
               d="m -5.7890671,32.921056 0,-1.593948 c -6e-7,-0.179959 -0.023567,-0.297791 -0.070699,-0.353496 -0.029994,-0.03856 -0.081412,-0.05784 -0.154253,-0.05785 -0.089981,3e-6 -0.1521106,0.0086 -0.1863889,0.02571 l 0,-0.109262 c 0.317075,-0.08998 0.6127262,-0.186387 0.8869544,-0.289225 l 0.04499,0.01286 0,0.507749 c 0.2013846,-0.188529 0.3492102,-0.312788 0.4434773,-0.372778 0.1542513,-0.09855 0.3192161,-0.147823 0.4948948,-0.147826 0.1928141,3e-6 0.353494,0.05999 0.4820405,0.179962 0.1799591,0.16711 0.2699399,0.428483 0.2699426,0.784119 l 0,1.47183 c -2.7e-6,0.154254 0.027848,0.263516 0.083554,0.327788 0.0557,0.06427 0.1585348,0.09641 0.3085059,0.09641 l 0,0.09641 -1.3368588,0 0,-0.09641 c 0.1371118,0 0.2335198,-0.02785 0.2892242,-0.08355 0.077124,-0.08141 0.1156876,-0.233521 0.1156897,-0.456331 l 0,-1.343286 c -2.1e-6,-0.205669 -0.036423,-0.359922 -0.1092625,-0.462759 -0.072844,-0.107118 -0.2013876,-0.160678 -0.3856323,-0.16068 -0.098552,2e-6 -0.1971025,0.03 -0.2956515,0.08998 -0.098552,0.05999 -0.212099,0.152112 -0.3406419,0.276369 l 0,1.806045 c -1.1e-6,0.111406 0.029992,0.194959 0.089981,0.250661 0.064271,0.0557 0.1756757,0.08355 0.3342148,0.08355 l 0,0.09641 -1.3625677,0 0,-0.09641 c 0.1499678,0 0.252803,-0.03214 0.3085059,-0.09641 0.059987,-0.06856 0.08998,-0.197101 0.089981,-0.385632"
               style=""
               id="path3166" />
            <path
               d="m -1.2450315,32.708958 0,-0.931945 c -0.424197,0.1414 -0.7177058,0.304222 -0.8805272,0.488468 -0.107121,0.119975 -0.160681,0.257089 -0.1606802,0.411341 -8e-7,0.154253 0.040705,0.278513 0.1221169,0.372778 0.08141,0.09427 0.1821031,0.141399 0.3020787,0.141398 0.064271,10e-7 0.13497,-0.01285 0.2120978,-0.03856 0.077125,-0.02571 0.1392546,-0.05142 0.186389,-0.07713 0.094264,-0.04285 0.1542511,-0.08784 0.1799618,-0.134971 0.025707,-0.05142 0.038561,-0.128543 0.038563,-0.231379 m 0.99621693,0.36635 0,0.167108 c -0.11569243,0.137114 -0.23138203,0.229237 -0.34706913,0.27637 -0.0728441,0.02999 -0.14782808,0.04499 -0.22495221,0.04499 -0.10712226,0 -0.19067589,-0.01928 -0.25066099,-0.05785 -0.1114069,-0.07284 -0.1671093,-0.209955 -0.1671074,-0.411341 -0.1585395,0.141399 -0.2977954,0.246376 -0.4177684,0.314933 -0.179963,0.102835 -0.351355,0.154253 -0.5141765,0.154253 -0.1842473,0 -0.3449273,-0.05999 -0.4820404,-0.179962 -0.1328293,-0.119974 -0.1992437,-0.282796 -0.1992434,-0.488467 -3e-7,-0.291366 0.1371133,-0.531315 0.4113412,-0.719847 0.1885305,-0.128543 0.5870169,-0.312789 1.1954603,-0.55274 l 0,-0.39206 c -1.9e-6,-0.201383 -0.057847,-0.347066 -0.1735346,-0.43705 -0.085698,-0.06427 -0.1928176,-0.09641 -0.3213603,-0.09641 -0.1156909,3e-6 -0.2206685,0.03 -0.3149331,0.08998 -0.094267,0.0557 -0.1413994,0.130689 -0.1413985,0.224952 -9e-7,0.04285 0.00214,0.08784 0.00643,0.134972 0.00857,0.04285 0.017138,0.08141 0.025709,0.115689 -9e-7,0.07284 -0.027852,0.137116 -0.083554,0.192817 -0.055703,0.0557 -0.12426,0.08355 -0.2056706,0.08355 -0.089981,2e-6 -0.1585382,-0.02999 -0.2056706,-0.08998 -0.047133,-0.06427 -0.0707,-0.128542 -0.070699,-0.192816 -4e-7,-0.158535 0.081411,-0.308503 0.2442338,-0.449904 0.201385,-0.175674 0.469185,-0.263513 0.8034008,-0.263516 0.4156241,3e-6 0.69413613,0.12212 0.83553676,0.366351 0.081409,0.141401 0.12211456,0.362068 0.12211692,0.662002 l 0,1.253305 c -2.36e-6,0.13283 0.008567,0.229238 0.0257088,0.289225 0.0214216,0.0557 0.0749816,0.08355 0.16068015,0.08355 0.0599846,10e-7 0.11140224,-0.01071 0.15425294,-0.03214 0.0428453,-0.02142 0.0878357,-0.05142 0.13497133,-0.08998"
               style=""
               id="path3168" />
            <path
               d="m -0.10098868,33.499504 0,-0.09641 c 0.18853106,0 0.31707505,-0.03214 0.38563237,-0.09641 0.0728411,-0.06856 0.10926187,-0.190673 0.1092625,-0.366351 l 0,-3.065777 c -6.3e-7,-0.154249 -0.0171398,-0.257085 -0.0514176,-0.308506 -0.034279,-0.0557 -0.11354777,-0.08355 -0.23780662,-0.08355 l -0.21852501,0.01285 0,-0.102836 c 0.32564466,-0.08141 0.53774225,-0.134967 0.6362934,-0.16068 0.025708,-0.0086 0.15425204,-0.04927 0.38563237,-0.122117 l 0.0257088,0.01285 0,3.837042 c -1.17e-6,0.184247 0.0321348,0.304221 0.0964081,0.359923 0.064271,0.0557 0.1928147,0.08355 0.3856324,0.08355 l 0,0.09641 -1.51682068,0"
               style=""
               id="path3170" />
            <path
               d="m 4.9443659,33.499504 0,-0.122117 c 0.2656575,0 0.4349071,-0.03642 0.5077493,-0.109262 0.077126,-0.07713 0.115689,-0.233522 0.1156897,-0.469186 l 0,-2.85368 c -7e-7,-0.24423 -0.038564,-0.400625 -0.1156897,-0.469186 -0.072842,-0.07284 -0.2420918,-0.109258 -0.5077493,-0.109262 l 0,-0.122117 1.9088802,0 0,0.122117 c -0.2485204,4e-6 -0.4156276,0.03642 -0.501322,0.109262 -0.085697,0.06856 -0.1285455,0.224956 -0.1285442,0.469186 l 0,2.85368 c -1.3e-6,0.239949 0.042847,0.396344 0.1285442,0.469186 0.085694,0.07284 0.2528016,0.109262 0.501322,0.109262 l 0,0.122117 -1.9088802,0"
               style=""
               id="path3172" />
            <path
               d="m 7.4895431,32.921056 0,-1.593948 c -5e-7,-0.179959 -0.023567,-0.297791 -0.070699,-0.353496 -0.029994,-0.03856 -0.081412,-0.05784 -0.1542529,-0.05785 -0.089981,3e-6 -0.1521107,0.0086 -0.186389,0.02571 l 0,-0.109262 c 0.3170751,-0.08998 0.6127263,-0.186387 0.8869544,-0.289225 l 0.04499,0.01286 0,0.507749 c 0.2013845,-0.188529 0.3492101,-0.312788 0.4434772,-0.372778 0.1542513,-0.09855 0.3192161,-0.147823 0.4948949,-0.147826 0.192814,3e-6 0.353494,0.05999 0.4820404,0.179962 0.1799592,0.16711 0.26994,0.428483 0.2699427,0.784119 l 0,1.47183 c -2.7e-6,0.154254 0.027848,0.263516 0.083554,0.327788 0.0557,0.06427 0.1585347,0.09641 0.3085063,0.09641 l 0,0.09641 -1.3368593,0 0,-0.09641 c 0.1371118,0 0.2335198,-0.02785 0.2892243,-0.08355 0.077124,-0.08141 0.1156875,-0.233521 0.1156897,-0.456331 l 0,-1.343286 c -2.2e-6,-0.205669 -0.036423,-0.359922 -0.1092625,-0.462759 -0.072844,-0.107118 -0.2013877,-0.160678 -0.3856324,-0.16068 -0.098552,2e-6 -0.1971025,0.03 -0.2956515,0.08998 -0.098552,0.05999 -0.212099,0.152112 -0.3406419,0.276369 l 0,1.806045 c -1.1e-6,0.111406 0.029992,0.194959 0.089981,0.250661 0.064271,0.0557 0.1756756,0.08355 0.3342147,0.08355 l 0,0.09641 -1.3625677,0 0,-0.09641 c 0.1499679,0 0.2528031,-0.03214 0.3085059,-0.09641 0.059987,-0.06856 0.08998,-0.197101 0.089981,-0.385632"
               style=""
               id="path3174" />
            <path
               d="m 13.254744,30.607261 0,0.09641 c -0.102838,0.0086 -0.177822,0.04499 -0.224952,0.109263 -0.04714,0.05999 -0.111408,0.190676 -0.192816,0.39206 l -0.822683,2.063133 c -0.04713,0.111405 -0.07927,0.186389 -0.09641,0.224952 -0.02999,0.06427 -0.0557,0.09641 -0.07713,0.09641 -0.03,0 -0.05785,-0.02357 -0.08355,-0.0707 -0.02143,-0.04713 -0.05142,-0.12426 -0.08998,-0.23138 -0.119976,-0.308505 -0.276371,-0.691995 -0.469186,-1.15047 -0.23995,-0.569877 -0.417769,-0.968363 -0.533458,-1.19546 -0.04713,-0.09426 -0.09855,-0.156393 -0.154253,-0.186389 -0.0557,-0.03428 -0.122117,-0.05141 -0.199243,-0.05142 l 0,-0.09641 1.259732,0 0,0.09641 c -0.09427,3e-6 -0.167109,0.01286 -0.218525,0.03856 -0.05142,0.02571 -0.07713,0.07713 -0.07713,0.154253 -2e-6,0.03857 0.0064,0.07713 0.01928,0.115689 0.01285,0.03857 0.02571,0.07499 0.03856,0.109263 l 0.655575,1.645365 c 0.02999,-0.08141 0.169248,-0.437049 0.417769,-1.066917 0.17139,-0.432763 0.257086,-0.694135 0.257088,-0.784119 -2e-6,-0.06855 -0.03,-0.119972 -0.08998,-0.154253 -0.05571,-0.03856 -0.126404,-0.05784 -0.212098,-0.05784 l 0,-0.09641 0.893382,0"
               style=""
               id="path3176" />
            <path
               d="m 14.977236,30.542989 c 0.432763,3e-6 0.781975,0.132832 1.047635,0.398487 0.265655,0.26566 0.398484,0.629868 0.398487,1.092625 -3e-6,0.368494 -0.115693,0.702709 -0.34707,1.002644 -0.269945,0.351354 -0.629868,0.527031 -1.07977,0.527031 -0.411343,0 -0.749842,-0.143541 -1.015499,-0.430623 -0.261373,-0.291366 -0.392059,-0.657716 -0.392059,-1.099052 0,-0.415624 0.122116,-0.762693 0.36635,-1.041207 0.261373,-0.299934 0.602014,-0.449902 1.021926,-0.449905 m 0.109263,2.840825 c 0.201384,0 0.368491,-0.07713 0.501322,-0.231379 0.17139,-0.201385 0.257086,-0.512033 0.257088,-0.931945 -2e-6,-0.415624 -0.08141,-0.76912 -0.244234,-1.060489 -0.162824,-0.291364 -0.387776,-0.437047 -0.674856,-0.43705 -0.214242,3e-6 -0.394204,0.08784 -0.539886,0.263516 -0.145684,0.171394 -0.218526,0.41777 -0.218525,0.739128 -10e-7,0.37278 0.0557,0.706994 0.167108,1.002644 0.162821,0.437051 0.413482,0.655575 0.751983,0.655575"
               style=""
               id="path3178" />
            <path
               d="m 16.71901,33.499504 0,-0.09641 c 0.209955,0 0.347069,-0.03214 0.411341,-0.09641 0.06427,-0.06427 0.09641,-0.218525 0.09641,-0.462759 l 0,-1.491112 c 0,-0.167105 -0.02357,-0.27851 -0.0707,-0.334214 -0.02999,-0.03428 -0.08141,-0.05142 -0.154253,-0.05142 -0.04285,2e-6 -0.07713,0.0021 -0.102835,0.0064 -0.02143,3e-6 -0.07284,0.0064 -0.154253,0.01928 l 0,-0.09641 c 0.201385,-0.06427 0.36635,-0.119972 0.494895,-0.167108 0.222809,-0.08569 0.389916,-0.147823 0.501322,-0.186389 l 0.02571,0.01928 0,2.281658 c -2e-6,0.227095 0.02571,0.377063 0.07713,0.449904 0.0557,0.07284 0.18853,0.109263 0.398487,0.109263 l 0,0.09641 -1.523248,0 m 0.398487,-4.061994 c -1e-6,-0.07712 0.02357,-0.145679 0.0707,-0.205671 0.06427,-0.08141 0.147825,-0.122112 0.250661,-0.122117 0.09427,5e-6 0.173534,0.03214 0.237807,0.09641 0.06427,0.06428 0.09641,0.141403 0.09641,0.23138 -10e-7,0.09427 -0.03214,0.173538 -0.09641,0.237806 -0.05999,0.05999 -0.139257,0.08999 -0.237807,0.08998 -0.102836,4e-6 -0.182105,-0.03642 -0.237807,-0.109262 -0.0557,-0.07284 -0.08355,-0.14568 -0.08355,-0.218525"
               style=""
               id="path3180" />
            <path
               d="m 20.960965,32.49686 0.08998,0.05785 c -0.171395,0.359924 -0.362068,0.619154 -0.572021,0.777692 -0.205673,0.154253 -0.443479,0.231379 -0.71342,0.231379 -0.299938,0 -0.563453,-0.111405 -0.790547,-0.334215 -0.274227,-0.269942 -0.411341,-0.636292 -0.411341,-1.099052 0,-0.497035 0.15211,-0.893379 0.456332,-1.189033 0.274226,-0.265655 0.602013,-0.398484 0.983362,-0.398487 0.115688,3e-6 0.235663,0.01928 0.359924,0.05785 0.124257,0.03428 0.231377,0.08356 0.32136,0.147826 0.08998,0.05999 0.158535,0.132831 0.205671,0.218525 0.04713,0.08141 0.0707,0.156398 0.0707,0.224952 -3e-6,0.08141 -0.02571,0.14997 -0.07713,0.205671 -0.04714,0.05142 -0.119976,0.07713 -0.218525,0.07713 -0.08141,2e-6 -0.14997,-0.02785 -0.20567,-0.08355 -0.05142,-0.0557 -0.08784,-0.126399 -0.109263,-0.212097 l -0.03856,-0.141399 c -0.03,-0.115687 -0.06427,-0.190671 -0.102835,-0.224952 -0.05999,-0.0557 -0.167109,-0.08355 -0.32136,-0.08355 -0.184248,3e-6 -0.351356,0.0707 -0.501323,0.212098 -0.218525,0.205673 -0.327788,0.516321 -0.327787,0.931945 -1e-6,0.36421 0.09427,0.659861 0.282797,0.886954 0.18853,0.227096 0.422052,0.340643 0.700565,0.340642 0.209954,1e-6 0.3942,-0.05999 0.55274,-0.179961 0.111403,-0.0857 0.23352,-0.227094 0.366351,-0.424196"
               style=""
               id="path3182" />
            <path
               d="m 23.878917,32.445442 0.102835,0.04499 c -0.07284,0.22281 -0.190676,0.426338 -0.353496,0.610584 -0.27423,0.308506 -0.610587,0.462759 -1.009072,0.462759 -0.364209,0 -0.655575,-0.126402 -0.8741,-0.379205 -0.218525,-0.252803 -0.327787,-0.606299 -0.327787,-1.060489 0,-0.535599 0.154252,-0.946939 0.462759,-1.234024 0.248517,-0.231376 0.531314,-0.347066 0.848391,-0.347069 0.321358,3e-6 0.576304,0.08998 0.764837,0.269943 0.209953,0.197103 0.33207,0.499182 0.366351,0.906236 l -1.998861,0 c -1e-6,0.514178 0.115689,0.889098 0.347069,1.124761 0.179961,0.184247 0.404913,0.27637 0.674857,0.27637 0.248516,0 0.467041,-0.08141 0.655575,-0.244234 0.107117,-0.09427 0.220665,-0.237806 0.340642,-0.430623 m -1.998861,-0.931945 1.324004,0 c -0.03428,-0.222807 -0.07927,-0.383487 -0.134971,-0.48204 -0.09855,-0.17139 -0.259232,-0.257086 -0.482041,-0.257088 -0.192817,2e-6 -0.34707,0.0557 -0.462759,0.167107 -0.111405,0.107123 -0.192816,0.297796 -0.244233,0.572021"
               style=""
               id="path3184" />
            <path
               d="m 30.293267,33.377387 0,0.122117 -1.876744,0 0,-0.122117 c 0.274226,0 0.447761,-0.04713 0.520604,-0.141398 0.0557,-0.07284 0.08355,-0.242091 0.08355,-0.50775 l 0,-3.213603 -0.34707,0 c -0.355639,4e-6 -0.59773,0.05142 -0.726274,0.154253 -0.128544,0.09855 -0.227095,0.321364 -0.295651,0.66843 l -0.154253,0 0.03856,-1.092625 3.624944,0 0.03856,1.092625 -0.154252,0 c -0.06428,-0.347066 -0.160684,-0.569876 -0.289225,-0.66843 -0.128547,-0.102831 -0.372781,-0.154249 -0.732701,-0.154253 l -0.347069,0 0,3.284303 c -3e-6,0.227095 0.03642,0.381348 0.109262,0.462758 0.07712,0.07713 0.246374,0.11569 0.507749,0.11569"
               style=""
               id="path3186" />
            <path
               d="m 33.943923,32.445442 0.102835,0.04499 c -0.07284,0.22281 -0.190676,0.426338 -0.353496,0.610584 -0.27423,0.308506 -0.610586,0.462759 -1.009071,0.462759 -0.36421,0 -0.655576,-0.126402 -0.8741,-0.379205 -0.218526,-0.252803 -0.327788,-0.606299 -0.327788,-1.060489 0,-0.535599 0.154253,-0.946939 0.462759,-1.234024 0.248518,-0.231376 0.531314,-0.347066 0.848391,-0.347069 0.321359,3e-6 0.576304,0.08998 0.764838,0.269943 0.209953,0.197103 0.332069,0.499182 0.36635,0.906236 l -1.998861,0 c 0,0.514178 0.115689,0.889098 0.347069,1.124761 0.179961,0.184247 0.404913,0.27637 0.674857,0.27637 0.248517,0 0.467042,-0.08141 0.655575,-0.244234 0.107118,-0.09427 0.220665,-0.237806 0.340642,-0.430623 m -1.998861,-0.931945 1.324004,0 c -0.03428,-0.222807 -0.07927,-0.383487 -0.134971,-0.48204 -0.09855,-0.17139 -0.259232,-0.257086 -0.48204,-0.257088 -0.192818,2e-6 -0.347071,0.0557 -0.462759,0.167107 -0.111406,0.107123 -0.192817,0.297796 -0.244234,0.572021"
               style=""
               id="path3188" />
            <path
               d="m 34.728042,32.953192 0,-1.626084 c 0,-0.179959 -0.02357,-0.297791 -0.0707,-0.353496 -0.02999,-0.03856 -0.08141,-0.05784 -0.154253,-0.05785 -0.06856,3e-6 -0.137114,0.0086 -0.205671,0.02571 l 0,-0.109262 c 0.308506,-0.08569 0.608442,-0.182102 0.899809,-0.289225 l 0.04499,0.01286 0,0.48204 c 0.227093,-0.171389 0.396343,-0.289221 0.507749,-0.353496 0.167106,-0.09426 0.327786,-0.141396 0.48204,-0.141399 0.192814,3e-6 0.351352,0.05571 0.475614,0.167108 0.09855,0.08998 0.169247,0.214242 0.212098,0.372778 0.115686,-0.132827 0.239946,-0.242089 0.372777,-0.327788 0.218522,-0.141396 0.439189,-0.212095 0.662003,-0.212098 0.295647,3e-6 0.505602,0.13069 0.629866,0.39206 0.08569,0.184249 0.128539,0.43491 0.128544,0.751983 l 0,1.324004 c -5e-6,0.102836 0.01071,0.17782 0.03214,0.224953 0.03856,0.08141 0.11997,0.132829 0.244234,0.154253 l 0.167107,0.01285 0,0.09641 -1.407558,0 0,-0.09641 c 0.179958,-0.02142 0.291363,-0.05142 0.334215,-0.08998 0.05998,-0.05142 0.08998,-0.175676 0.08998,-0.372778 l 0,-1.35614 c -4e-6,-0.227093 -0.01929,-0.38563 -0.05785,-0.475614 -0.06856,-0.15425 -0.205674,-0.231376 -0.411341,-0.231379 -0.171396,3e-6 -0.317079,0.03642 -0.43705,0.109263 -0.102839,0.05999 -0.194962,0.154255 -0.27637,0.282797 l 0,1.619656 c -3e-6,0.22281 0.04284,0.368493 0.128544,0.43705 0.06427,0.05142 0.175674,0.07713 0.334215,0.07713 l 0,0.09641 -1.439695,0 0,-0.09641 c 0.162821,0 0.272083,-0.02357 0.327788,-0.0707 0.07284,-0.05999 0.10926,-0.188531 0.109262,-0.385633 l 0,-1.394703 c -2e-6,-0.222808 -0.03428,-0.389915 -0.102835,-0.501322 -0.06856,-0.115688 -0.182106,-0.173532 -0.340642,-0.173535 -0.192818,3e-6 -0.370637,0.05785 -0.533458,0.173535 -0.137115,0.09427 -0.205672,0.162824 -0.20567,0.20567 l 0,1.812472 c -2e-6,0.141399 0.04499,0.235665 0.134971,0.282797 0.06427,0.03428 0.164963,0.05142 0.302079,0.05142 l 0,0.09641 -1.42684,0 0,-0.09641 c 0.158537,0 0.265657,-0.01928 0.32136,-0.05785 0.0857,-0.05999 0.128544,-0.190673 0.128544,-0.392059"
               style=""
               id="path3190" />
            <path
               d="m 39.657709,34.341468 0,-3.007932 c 0,-0.115688 -0.0043,-0.190672 -0.01285,-0.224953 -0.02571,-0.09426 -0.102836,-0.141396 -0.23138,-0.141398 l -0.179961,0.0064 0,-0.102835 c 0.308505,-0.09855 0.617011,-0.20781 0.925517,-0.327788 l 0.03856,0.01286 0,0.469186 0.01285,0.01285 c 0.09855,-0.128541 0.207812,-0.233519 0.327787,-0.314933 0.179961,-0.119972 0.379204,-0.179959 0.597731,-0.179962 0.299934,3e-6 0.550594,0.126405 0.751983,0.379205 0.205667,0.248521 0.308503,0.582736 0.308506,1.002645 -3e-6,0.411342 -0.113551,0.777692 -0.340642,1.099052 -0.257091,0.359923 -0.593448,0.539885 -1.009072,0.539885 -0.13283,0 -0.24852,-0.01928 -0.347069,-0.05785 -0.09427,-0.03856 -0.19496,-0.111405 -0.302079,-0.218525 l 0,1.009072 c -1e-6,0.201384 0.03642,0.332071 0.109263,0.392059 0.07284,0.05999 0.224951,0.08998 0.456332,0.08998 l 0,0.11569 -1.555384,0 0,-0.109263 c 0.197101,-10e-7 0.325644,-0.03856 0.385632,-0.115689 0.04285,-0.0557 0.06427,-0.164966 0.06427,-0.327788 m 0.539885,-2.988651 0,1.581093 c -1e-6,0.08141 0.06856,0.173535 0.205671,0.27637 0.137112,0.09855 0.28708,0.147826 0.449905,0.147826 0.257086,0 0.456329,-0.117832 0.59773,-0.353497 0.128541,-0.209954 0.192813,-0.505606 0.192816,-0.886954 -3e-6,-0.342783 -0.07284,-0.62558 -0.218525,-0.848391 -0.141401,-0.227093 -0.340644,-0.34064 -0.59773,-0.340642 -0.128546,2e-6 -0.261375,0.04071 -0.398487,0.122117 -0.137115,0.08141 -0.214241,0.182106 -0.23138,0.302078"
               style=""
               id="path3192" />
            <path
               d="m 42.52424,33.499504 0,-0.09641 c 0.188531,0 0.317075,-0.03214 0.385633,-0.09641 0.07284,-0.06856 0.109261,-0.190673 0.109262,-0.366351 l 0,-3.065777 c -10e-7,-0.154249 -0.01714,-0.257085 -0.05142,-0.308506 -0.03428,-0.0557 -0.113547,-0.08355 -0.237806,-0.08355 l -0.218525,0.01285 0,-0.102836 c 0.325644,-0.08141 0.537742,-0.134967 0.636293,-0.16068 0.02571,-0.0086 0.154252,-0.04927 0.385633,-0.122117 l 0.02571,0.01285 0,3.837042 c -10e-7,0.184247 0.03214,0.304221 0.09641,0.359923 0.06427,0.0557 0.192815,0.08355 0.385633,0.08355 l 0,0.09641 -1.516821,0"
               style=""
               id="path3194" />
            <path
               d="m 46.020643,32.708958 0,-0.931945 c -0.424197,0.1414 -0.717706,0.304222 -0.880527,0.488468 -0.107121,0.119975 -0.160681,0.257089 -0.16068,0.411341 -10e-7,0.154253 0.0407,0.278513 0.122117,0.372778 0.08141,0.09427 0.182103,0.141399 0.302078,0.141398 0.06427,10e-7 0.13497,-0.01285 0.212098,-0.03856 0.07712,-0.02571 0.139255,-0.05142 0.186389,-0.07713 0.09426,-0.04285 0.154251,-0.08784 0.179962,-0.134971 0.02571,-0.05142 0.03856,-0.128543 0.03856,-0.231379 m 0.996217,0.36635 0,0.167108 c -0.115692,0.137114 -0.231382,0.229237 -0.347069,0.27637 -0.07284,0.02999 -0.147828,0.04499 -0.224952,0.04499 -0.107123,0 -0.190676,-0.01928 -0.250661,-0.05785 -0.111407,-0.07284 -0.16711,-0.209955 -0.167108,-0.411341 -0.158539,0.141399 -0.297795,0.246376 -0.417768,0.314933 -0.179963,0.102835 -0.351355,0.154253 -0.514177,0.154253 -0.184247,0 -0.344927,-0.05999 -0.48204,-0.179962 -0.132829,-0.119974 -0.199244,-0.282796 -0.199243,-0.488467 -1e-6,-0.291366 0.137113,-0.531315 0.411341,-0.719847 0.18853,-0.128543 0.587017,-0.312789 1.19546,-0.55274 l 0,-0.39206 c -2e-6,-0.201383 -0.05785,-0.347066 -0.173534,-0.43705 -0.0857,-0.06427 -0.192818,-0.09641 -0.321361,-0.09641 -0.115691,3e-6 -0.220668,0.03 -0.314933,0.08998 -0.09427,0.0557 -0.141399,0.130689 -0.141398,0.224952 -1e-6,0.04285 0.0021,0.08784 0.0064,0.134972 0.0086,0.04285 0.01714,0.08141 0.02571,0.115689 -1e-6,0.07284 -0.02785,0.137116 -0.08355,0.192817 -0.0557,0.0557 -0.12426,0.08355 -0.205671,0.08355 -0.08998,2e-6 -0.158538,-0.02999 -0.20567,-0.08998 -0.04713,-0.06427 -0.0707,-0.128542 -0.0707,-0.192816 0,-0.158535 0.08141,-0.308503 0.244234,-0.449904 0.201385,-0.175674 0.469185,-0.263513 0.803401,-0.263516 0.415624,3e-6 0.694136,0.12212 0.835537,0.366351 0.08141,0.141401 0.122114,0.362068 0.122117,0.662002 l 0,1.253305 c -3e-6,0.13283 0.0086,0.229238 0.02571,0.289225 0.02142,0.0557 0.07498,0.08355 0.16068,0.08355 0.05998,10e-7 0.111402,-0.01071 0.154253,-0.03214 0.04284,-0.02142 0.08783,-0.05142 0.134971,-0.08998"
               style=""
               id="path3196" />
            <path
               d="m 48.668648,30.607261 0,0.205671 -0.649147,0 0,1.838181 c -10e-7,0.162823 0.01285,0.282798 0.03856,0.359923 0.05142,0.145684 0.147824,0.218526 0.289224,0.218525 0.09426,1e-6 0.175675,-0.02571 0.244234,-0.07713 0.03856,-0.02999 0.08784,-0.07927 0.147826,-0.147826 l 0.08355,0.0707 c -0.07713,0.141399 -0.18639,0.259231 -0.327787,0.353497 -0.137115,0.08998 -0.278514,0.134971 -0.424196,0.134971 -0.179962,0 -0.319218,-0.0557 -0.417768,-0.167107 -0.11569,-0.132829 -0.173535,-0.349211 -0.173535,-0.649148 l 0,-1.934589 -0.340642,0 -0.02571,-0.04499 c 0,-0.02571 0.04285,-0.06855 0.128545,-0.128544 0.0557,-0.03856 0.107119,-0.08141 0.154253,-0.128544 0.09855,-0.102832 0.194958,-0.214237 0.289224,-0.334214 0.07284,-0.09426 0.169249,-0.227092 0.289224,-0.398487 0.02999,3e-6 0.04499,0.02786 0.04499,0.08355 l 0,0.745556 0.649147,0"
               style=""
               id="path3198" />
            <path
               d="m 51.438777,32.445442 0.102835,0.04499 c -0.07284,0.22281 -0.190676,0.426338 -0.353496,0.610584 -0.27423,0.308506 -0.610586,0.462759 -1.009071,0.462759 -0.36421,0 -0.655576,-0.126402 -0.874101,-0.379205 -0.218525,-0.252803 -0.327787,-0.606299 -0.327787,-1.060489 0,-0.535599 0.154253,-0.946939 0.462759,-1.234024 0.248518,-0.231376 0.531314,-0.347066 0.848391,-0.347069 0.321359,3e-6 0.576304,0.08998 0.764838,0.269943 0.209952,0.197103 0.332069,0.499182 0.36635,0.906236 l -1.998861,0 c 0,0.514178 0.115689,0.889098 0.347069,1.124761 0.179961,0.184247 0.404913,0.27637 0.674857,0.27637 0.248517,0 0.467042,-0.08141 0.655575,-0.244234 0.107118,-0.09427 0.220665,-0.237806 0.340642,-0.430623 m -1.998861,-0.931945 1.324004,0 c -0.03428,-0.222807 -0.07927,-0.383487 -0.134971,-0.48204 -0.09855,-0.17139 -0.259232,-0.257086 -0.482041,-0.257088 -0.192817,2e-6 -0.34707,0.0557 -0.462758,0.167107 -0.111406,0.107123 -0.192817,0.297796 -0.244234,0.572021"
               style=""
               id="path3200" />
            <path
               d="m 53.694723,31.481361 -0.09641,0 c -0.06427,-0.304218 -0.164966,-0.518458 -0.302078,-0.64272 -0.107122,-0.09855 -0.244235,-0.147823 -0.411341,-0.147826 -0.158539,3e-6 -0.280656,0.04499 -0.366351,0.134971 -0.08141,0.0857 -0.122118,0.179965 -0.122117,0.282797 -1e-6,0.107123 0.02357,0.197104 0.0707,0.269943 0.05142,0.07284 0.119974,0.134973 0.205671,0.186389 l 0.694138,0.411341 c 0.184245,0.111407 0.312789,0.212099 0.385632,0.302079 0.102834,0.12426 0.154251,0.276371 0.154253,0.456332 -2e-6,0.261373 -0.102837,0.469186 -0.308506,0.623439 -0.179963,0.137113 -0.387776,0.20567 -0.623438,0.20567 -0.102837,0 -0.239951,-0.01928 -0.411342,-0.05785 -0.171393,-0.03856 -0.282797,-0.05784 -0.334214,-0.05784 -0.05999,0 -0.107121,0.02571 -0.141399,0.07713 l -0.08355,0 0,-1.002644 0.102836,0 c 0.05999,0.269943 0.128543,0.462759 0.20567,0.578448 0.141398,0.214241 0.349211,0.321361 0.623439,0.321361 0.132828,0 0.246375,-0.03214 0.340642,-0.09641 0.119973,-0.08141 0.17996,-0.205671 0.179962,-0.372778 -2e-6,-0.192816 -0.111407,-0.351353 -0.334215,-0.475614 l -0.372778,-0.212097 c -0.312791,-0.175676 -0.516319,-0.332071 -0.610584,-0.469187 -0.09427,-0.141396 -0.141399,-0.297791 -0.141399,-0.469186 0,-0.205668 0.0707,-0.381345 0.212098,-0.52703 0.167107,-0.17139 0.396343,-0.257086 0.687711,-0.257089 0.09426,3e-6 0.190672,0.015 0.289224,0.04499 0.09855,0.02571 0.199242,0.05356 0.302079,0.08355 0.03856,3e-6 0.07498,-0.02356 0.109262,-0.0707 l 0.0707,0 0.02571,0.880527"
               style=""
               id="path3202" />
          </g>
          <flowRoot
             xml:space="preserve"
             id="flowRoot3963"
             style="fill:black;stroke:none;stroke-opacity:1;stroke-width:1px;stroke-linejoin:miter;stroke-linecap:butt;fill-opacity:1;font-family:Rekha;font-style:normal;font-weight:500;font-size:40px;line-height:125%;letter-spacing:0px;word-spacing:0px;-inkscape-font-specification:Rekha Medium;font-stretch:normal;font-variant:normal;text-anchor:start;text-align:start;writing-mode:lr"><flowRegion
               id="flowRegion3965"><rect
                 id="rect3967"
                 width="1118.5714"
                 height="667.14288"
                 x="-242.85715"
                 y="-175.71428" /></flowRegion><flowPara
               id="flowPara3969" /></flowRoot>          <g
             id="layer1-0"
             inkscape:label="Layer 1"
             transform="matrix(0.03755053,0,0,0.03755053,-28.699896,72.333842)">
            <text
               sodipodi:linespacing="125%"
               id="text2995"
               y="-812.18994"
               x="732.92993"
               style="font-size:124.60006714px;font-style:normal;font-variant:normal;font-weight:normal;font-stretch:normal;text-align:start;line-height:125%;letter-spacing:0px;word-spacing:0px;writing-mode:lr-tb;text-anchor:start;fill:#545454;fill-opacity:1;stroke:none;font-family:Albertus Medium;-inkscape-font-specification:'Albertus Medium,'"
               xml:space="preserve"><tspan
                 y="-812.18994"
                 x="732.92993"
                 id="tspan2997"
                 sodipodi:role="line"><tspan
                   id="tspan5303"
                   style="fill:#545454;fill-opacity:1">Optima</tspan></tspan></text>
            <text
               sodipodi:linespacing="125%"
               id="text5305"
               y="-776.94598"
               x="1029.9092"
               style="font-size:32px;font-style:normal;font-variant:normal;font-weight:normal;font-stretch:normal;text-align:start;line-height:125%;letter-spacing:0px;word-spacing:0px;writing-mode:lr-tb;text-anchor:start;fill:#545454;fill-opacity:1;stroke:none;font-family:Albertus Medium;-inkscape-font-specification:'Albertus Medium,'"
               xml:space="preserve"><tspan
                 y="-776.94598"
                 x="1029.9092"
                 id="tspan5307"
                 sodipodi:role="line">.CO.KE</tspan></text>
            <text
               sodipodi:linespacing="125%"
               id="text2998"
               y="-776.87921"
               x="1157.7754"
               style="font-size:149.32899475px;font-style:normal;font-variant:normal;font-weight:normal;font-stretch:normal;text-align:start;line-height:125%;letter-spacing:0px;word-spacing:0px;writing-mode:lr-tb;text-anchor:start;fill:#9abe00;fill-opacity:1;stroke:none;font-family:Albertus Medium;-inkscape-font-specification:'Albertus Medium,'"
               xml:space="preserve"><tspan
                 y="-776.87921"
                 x="1157.7754"
                 id="tspan3000"
                 sodipodi:role="line">ICT</tspan></text>
          </g>
          <g
             style="font-size:3.61636448px;font-style:normal;font-variant:normal;font-weight:500;font-stretch:normal;text-align:start;line-height:125%;letter-spacing:0px;word-spacing:0px;writing-mode:lr-tb;text-anchor:start;fill:#9abe00;fill-opacity:1;stroke:none;font-family:Rekha;-inkscape-font-specification:Rekha Medium"
             id="text4572">
            <path
               d="m -6.458671,39.842365 0,0.889964 c -6e-7,0.05415 0.044733,0.09771 0.134201,0.13067 0.070631,0.0259 0.138909,0.03885 0.2048331,0.03885 0.1789337,10e-7 0.3060714,-0.07534 0.3814135,-0.226022 0.05415,-0.108303 0.081226,-0.243681 0.081227,-0.406135 -1.3e-6,-0.188351 -0.03414,-0.344919 -0.1024166,-0.469704 -0.080051,-0.148326 -0.1954165,-0.222489 -0.3460973,-0.222491 -0.077696,2e-6 -0.1506826,0.01884 -0.2189596,0.05651 -0.089468,0.04944 -0.1342016,0.118899 -0.134201,0.208365 m -0.2966549,0.94647 0,-1.832903 c -3e-7,-0.06828 -0.00589,-0.111832 -0.017658,-0.13067 -0.02119,-0.03296 -0.067101,-0.04944 -0.1377326,-0.04944 l -0.077695,0.0035 0,-0.05651 c 0.1671625,-0.04473 0.2672245,-0.07181 0.3001865,-0.08123 0.032961,-0.01177 0.1035933,-0.03649 0.2118963,-0.07416 l 0.017658,0.0071 0,1.066545 c 0.018835,-0.05415 0.069454,-0.111833 0.151859,-0.173049 0.103593,-0.07534 0.2142499,-0.113009 0.331971,-0.113011 0.2001231,2e-6 0.357868,0.08358 0.4732352,0.250744 0.1035921,0.148329 0.155389,0.326086 0.1553906,0.533273 -1.6e-6,0.204833 -0.061216,0.389654 -0.1836435,0.554462 -0.1601008,0.214251 -0.3861233,0.321376 -0.6780683,0.321376 -0.1035945,0 -0.2166058,-0.02119 -0.3390342,-0.06357 -0.1389101,-0.04944 -0.208365,-0.103594 -0.2083647,-0.162454"
               style=""
               id="path3226" />
            <path
               d="m -3.5556909,39.390319 0,0.05297 c -0.037672,0.0071 -0.064748,0.01531 -0.081227,0.02472 -0.035318,0.02355 -0.064748,0.06828 -0.08829,0.134201 l -0.5438673,1.440896 c -0.094177,0.247212 -0.1836443,0.423792 -0.2684021,0.529741 -0.094177,0.117719 -0.2048336,0.176579 -0.331971,0.17658 -0.082404,-10e-7 -0.1459732,-0.02119 -0.1907067,-0.06357 -0.044734,-0.04238 -0.067101,-0.08947 -0.0671,-0.141264 -1e-7,-0.03296 0.00706,-0.06121 0.02119,-0.08476 0.028253,-0.04709 0.077695,-0.07063 0.1483275,-0.07063 0.032961,0 0.070632,0.0059 0.1130114,0.01766 0.042379,0.01413 0.08829,0.02943 0.1377326,0.04591 0.077695,0 0.1542128,-0.08358 0.2295544,-0.250744 0.063568,-0.141264 0.095352,-0.238972 0.095353,-0.293123 -9e-7,-0.0259 -0.029431,-0.100062 -0.08829,-0.222492 -0.044734,-0.08711 -0.088291,-0.175402 -0.1306694,-0.26487 l -0.4026031,-0.868775 c -0.02119,-0.04473 -0.05886,-0.07652 -0.1130114,-0.09535 -0.025899,-0.0094 -0.048265,-0.0153 -0.0671,-0.01766 l 0,-0.04944 0.7275108,0 0,0.05297 c -0.058861,2e-6 -0.1083032,0.0071 -0.1483274,0.02119 -0.037671,0.01177 -0.056506,0.03885 -0.056506,0.08123 -6e-7,0.01884 0.00353,0.0412 0.010595,0.0671 0.00942,0.02355 0.017657,0.04356 0.024721,0.06004 l 0.4061346,0.893496 0.2754653,-0.784017 c 0.016479,-0.04709 0.034137,-0.09535 0.052974,-0.144795 0.018834,-0.04944 0.028252,-0.08123 0.028253,-0.09535 -1.3e-6,-0.06592 -0.056507,-0.09888 -0.1695171,-0.09889 l 0,-0.05297 0.4767669,0"
               style=""
               id="path3228" />
          </g>
        </g>
      </g>
      <g
         id="g3093" />
      <g
         id="g3095" />
      <g
         id="g3097" />
      <g
         id="g3099" />
      <g
         id="g3101" />
      <g
         id="g3103" />
      <g
         id="g3105" />
      <g
         id="g3107" />
      <g
         id="g3109" />
      <g
         id="g3111" />
      <g
         id="g3113" />
      <g
         id="g3115" />
      <g
         id="g3117" />
      <g
         id="g3119" />
      <g
         id="g3121" />
    </g>
  </g>
</svg>
